<svg id="disinfection" enable-background="new 0 0 300 300" height="512" viewBox="0 0 300 300" width="512" xmlns="http://www.w3.org/2000/svg"><g><path d="m143.698 184.943c0 7.719 6.281 14 14 14s14-6.281 14-14-6.281-14-14-14-14 6.281-14 14zm20 0c0 3.308-2.692 6-6 6s-6-2.692-6-6 2.692-6 6-6 6 2.691 6 6z"/><path d="m252.026 201.057c-2.362 0-4.276 1.915-4.276 4.276 0 2.362 1.914 4.277 4.276 4.277s4.276-1.915 4.276-4.277c0-2.361-1.914-4.276-4.276-4.276z"/><path d="m203.75 225.334c0 2.362 1.914 4.277 4.276 4.277s4.276-1.915 4.276-4.277-1.915-4.276-4.276-4.276c-2.362-.001-4.276 1.914-4.276 4.276z"/><path d="m208.026 45.611c2.362 0 4.276-1.915 4.276-4.277s-1.915-4.276-4.276-4.276c-2.362 0-4.276 1.915-4.276 4.276 0 2.362 1.914 4.277 4.276 4.277z"/><path d="m160.026 69.611c2.362 0 4.276-1.915 4.276-4.277s-1.915-4.276-4.276-4.276c-2.362 0-4.276 1.915-4.276 4.276 0 2.362 1.914 4.277 4.276 4.277z"/><path d="m187.702 106.943c.852 0 1.707-.27 2.434-.83l6.34-4.877c1.754-1.346 2.078-3.857.734-5.609-1.348-1.752-3.859-2.082-5.609-.73l-6.34 4.877c-1.754 1.346-2.078 3.858-.734 5.61.788 1.021 1.975 1.559 3.175 1.559z"/><path d="m207.147 91.984c.852 0 1.707-.27 2.434-.83l13.106-10.082c1.754-1.346 2.078-3.857.734-5.609-1.348-1.75-3.86-2.078-5.61-.73l-13.105 10.082c-1.754 1.346-2.078 3.857-.734 5.609.788 1.023 1.976 1.56 3.175 1.56z"/><path d="m233.362 71.819c.852 0 1.707-.269 2.434-.83l6.34-4.877c1.754-1.346 2.078-3.858.734-5.61-1.348-1.752-3.864-2.082-5.61-.73l-6.34 4.877c-1.754 1.346-2.078 3.857-.734 5.609.789 1.025 1.976 1.561 3.176 1.561z"/><path d="m187.85 116.042c.504 1.756 2.106 2.902 3.844 2.902.367 0 .734-.051 1.102-.156l7.692-2.197c2.125-.606 3.355-2.82 2.75-4.945-.61-2.127-2.84-3.35-4.946-2.746l-7.691 2.197c-2.126.605-3.357 2.82-2.751 4.945z"/><path d="m209.08 109.974c.504 1.758 2.106 2.904 3.844 2.904.367 0 .734-.051 1.102-.156l13.539-3.867c2.125-.605 3.356-2.82 2.75-4.943-.609-2.129-2.84-3.354-4.945-2.748l-13.539 3.867c-2.125.605-3.356 2.82-2.751 4.943z"/><path d="m236.158 102.239c.504 1.756 2.106 2.902 3.844 2.902.367 0 .734-.051 1.102-.156l7.691-2.197c2.125-.605 3.356-2.82 2.75-4.945-.609-2.127-2.836-3.344-4.945-2.746l-7.692 2.197c-2.124.606-3.355 2.821-2.75 4.945z"/><path d="m191.6 146.989c.726.561 1.582.83 2.434.83 1.199 0 2.387-.537 3.176-1.56 1.344-1.752 1.02-4.264-.734-5.609l-6.34-4.877c-1.75-1.352-4.262-1.022-5.609.73-1.344 1.752-1.02 4.264.734 5.61z"/><path d="m220.244 167.984c1.199 0 2.387-.537 3.176-1.561 1.344-1.752 1.019-4.264-.734-5.609l-13.106-10.082c-1.75-1.354-4.258-1.022-5.609.73-1.344 1.752-1.02 4.264.734 5.609l13.105 10.082c.728.561 1.583.831 2.434.831z"/><path d="m235.795 170.896c-1.754-1.354-4.262-1.022-5.609.73-1.344 1.752-1.02 4.264.734 5.609l6.34 4.877c.727.56 1.582.83 2.434.83 1.199 0 2.387-.537 3.176-1.56 1.344-1.752 1.02-4.264-.734-5.61z"/><path d="m200.487 125.294-7.692-2.197c-2.102-.602-4.336.619-4.945 2.746-.606 2.125.625 4.34 2.75 4.945l7.691 2.197c.367.106.734.156 1.102.156 1.738 0 3.34-1.146 3.844-2.902.605-2.124-.625-4.339-2.75-4.945z"/><path d="m226.471 140.878c1.738 0 3.34-1.146 3.844-2.904.606-2.123-.625-4.338-2.75-4.943l-13.539-3.867c-2.109-.61-4.336.619-4.945 2.748-.606 2.123.625 4.338 2.75 4.943l13.539 3.867c.367.105.734.156 1.101.156z"/><path d="m251.545 144.042c.606-2.125-.625-4.34-2.75-4.945l-7.691-2.197c-2.106-.608-4.336.617-4.946 2.746-.605 2.125.625 4.34 2.75 4.945l7.692 2.197c.367.106.734.156 1.102.156 1.738.001 3.339-1.146 3.843-2.902z"/><path d="m227.698 254.943h-104v-108h16c6.617 0 12-5.383 12-12 0-1.41-.289-2.743-.737-4h20.737v4c0 2.209 1.789 4 4 4s4-1.791 4-4v-28c0-2.209-1.789-4-4-4s-4 1.791-4 4v4h-51.977c-1.144-1.53-2.494-2.88-4.023-4.024v-3.976h8c2.211 0 4-1.791 4-4v-16c0-2.209-1.789-4-4-4h-8v-12c0-11.027-8.973-20-20-20h-4c-11.027 0-20 8.973-20 20v39.674c-.111.107-.219.215-.326.326h-23.674c-2.211 0-4 1.791-4 4v68c0 1.516.855 2.9 2.211 3.578l20.805 10.403-2.765 62.019h-12.251c-2.211 0-4 1.791-4 4s1.789 4 4 4h176c2.211 0 4-1.791 4-4s-1.79-4-4-4zm-112-168h4v8h-4zm-48.594 97.23-15.406-7.703v-61.527h16v9.998c0 .001.001.002.001.003l.003 45.821zm104.594-65.23v4h-48v-.234c0-1.29-.144-2.544-.381-3.766zm-56 3.765v.234h-3.875l-4.589-11.47c4.874 1.438 8.464 5.902 8.464 11.236zm-8-39.765h-8.489c-4.14 0-7.511-3.74-7.511-8.336v-3.664h16zm-16-28h4c5.208 0 9.606 3.354 11.263 8h-26.526c1.656-4.646 6.055-8 11.263-8zm-12 16h4v3.664c0 9.008 6.957 16.336 15.511 16.336h8.489v12h-3.766-23.203-1.031zm7.895 184 10.671-38.602 5.298 38.602zm28.105 0h-4.064l-8.084-58.938c-.258-1.881-1.801-3.322-3.695-3.447-1.875-.186-3.617 1.094-4.121 2.924l-16.441 59.461h-7.335l3.562-80h40.178zm0-88h-40v-42.002-8.967c0-2.773 2.258-5.031 5.031-5.031h3.71c-.946 2.657-1.013 5.638.114 8.457l8 20c1.832 4.582 6.207 7.543 11.145 7.543h12zm-12-28c-1.645 0-3.106-.987-3.715-2.516l-8-20c-.821-2.047.179-4.379 2.226-5.197.485-.194.985-.285 1.48-.285 1.59 0 3.098.951 3.723 2.514l5.989 14.971c.609 1.518 2.078 2.514 3.715 2.514h2.35 28.232c2.207 0 4 1.795 4 4s-1.793 4-4 4h-36z"/></g></svg>